<svg id="Layer_1" data-name="Layer 1" xmlns="http://www.w3.org/2000/svg" viewBox="0 0 87 87"><defs><style>.cls-1{fill:#00263e;}</style></defs><path class="cls-1" d="M77.9,49.65c.13,0,.27,0,.27-.17s-.1-.15-.21-.15h-.21v.32h.15m-.15.49h-.11v-.91H78c.2,0,.29.09.29.25a.24.24,0,0,1-.23.26l.27.4h-.13l-.25-.4h-.19Zm-.48-.45a.66.66,0,0,0,1.32,0,.66.66,0,1,0-1.32,0m1.44,0a.78.78,0,1,1-.78-.78.77.77,0,0,1,.78.78"/><path class="cls-1" d="M22.85,44.11l-1.22,3.35H24Zm-12,6.54a7.35,7.35,0,0,1-2.52-.49V48.37h.24A2.07,2.07,0,0,0,10.89,50c1.2,0,2-.65,2-1.64s-.78-1.6-2.33-2.34c-1.71-.83-2.26-1.63-2.25-2.64,0-1.61,1.3-2.43,3.21-2.43a7.58,7.58,0,0,1,2.19.33v1.56h-.21c-.12-.75-.76-1.27-2-1.26s-1.85.52-1.89,1.4.48,1.27,1.45,1.73c2.22,1.05,3,1.72,3.12,3.09.11,1.71-1.14,2.84-3.4,2.84m9.13-6.31c-.16-.7-.47-1-1.59-1h-.52V49c0,.88.25,1.15,1,1.15v.23H15.5v-.23c.79,0,1-.27,1-1.15V43.33H16c-1.13,0-1.45.31-1.6,1h-.23V42.85h6v1.49Zm4,6.08v-.23c.44,0,.77-.11.77-.45a1.3,1.3,0,0,0-.11-.5l-.39-1.15H21.4l-.37,1a2.32,2.32,0,0,0-.13.58c0,.33.13.51.71.51v.23H19.26v-.23c.6,0,.8-.42,1.12-1.28l2.23-6.06h1.05l2.27,6.24c.3.81.42,1.07,1.14,1.1v.23Zm7.87-6.08c-.13-.7-.47-1-1.58-1h-.51V49c0,.88.23,1.15,1,1.15v.23H27.42v-.23c.81,0,1-.27,1-1.15V43.33H28c-1.11,0-1.44.31-1.6,1h-.21V42.85h5.94v1.49Zm.51,6.08v-.23c.79,0,1.07-.27,1.07-1.15V44.23c0-.88-.28-1.15-1.07-1.15v-.23H37.8v1.49h-.23c-.14-.7-.46-1-1.57-1h-.66c-.54,0-.68.29-.68.93v1.92H36a.81.81,0,0,0,.9-.78h.21v2.17h-.21a.83.83,0,0,0-.9-.81H34.66v2.36c0,.76.09.82.68.82H36.4c.89,0,1.37-.44,1.46-1h.22v1.51Zm11.28.23a7.35,7.35,0,0,1-2.52-.49V48.37h.23c.22.84.71,1.64,2.37,1.64,1.2,0,2-.65,2-1.64S45,46.77,43.39,46s-2.25-1.63-2.24-2.64c0-1.61,1.3-2.43,3.2-2.43a7.58,7.58,0,0,1,2.19.33v1.56h-.21c-.12-.75-.76-1.27-2-1.26s-1.85.52-1.89,1.4.49,1.27,1.45,1.73c2.22,1.05,3,1.72,3.13,3.09.1,1.71-1.15,2.84-3.4,2.84m9.13-6.31c-.16-.7-.48-1-1.59-1h-.52V49c0,.88.25,1.15,1,1.15v.23H48.33v-.23c.81,0,1.05-.27,1.05-1.15V43.33h-.52c-1.11,0-1.45.31-1.6,1h-.21V42.85H53v1.49Zm5.3,6.08-2.31-4c1,0,2-.53,2-1.59s-.7-1.52-1.62-1.52c-.64,0-.79.09-.79.75V49c0,.88.26,1.17,1,1.17v.23H53v-.23c.79,0,1.06-.29,1.06-1.17v-4.8c0-.6,0-1.14-.83-1.14v-.23h2.88c1.48,0,2.91.37,2.91,1.88a2,2,0,0,1-1.8,1.94l1.51,2.47c.43.69.6,1,1.19,1s.87-.37.87-1.16v-4.8c0-.88-.26-1.15-1.05-1.15v-.23H65.2v1.49H65c-.15-.7-.46-1-1.58-1h-.65c-.56,0-.68.29-.68.93v1.92h1.31a.81.81,0,0,0,.9-.78h.2v2.17h-.2a.83.83,0,0,0-.9-.81H62.06v2.36c0,.76.09.82.68.82h1a1.32,1.32,0,0,0,1.48-1h.21v1.51Zm7.83,0v-.23c.79,0,1-.27,1-1.15V44.23c0-.88-.26-1.15-1-1.15v-.23h5.43v1.49h-.22c-.15-.7-.47-1-1.58-1h-.65c-.55,0-.68.29-.68.93v1.92h1.31a.79.79,0,0,0,.88-.78h.22v2.17h-.22a.81.81,0,0,0-.88-.81H68.2v2.36c0,.76.09.82.68.82h1c.9,0,1.38-.44,1.46-1h.22v1.51Zm11.66-6.08c-.16-.7-.49-1-1.6-1h-.52V49c0,.88.24,1.15,1,1.15v.23H73.12v-.23c.79,0,1-.27,1-1.15V43.33h-.52c-1.11,0-1.43.31-1.59,1h-.22V42.85h5.94v1.49Z"/></svg>